<svg xmlns="http://www.w3.org/2000/svg" xmlns:xlink="http://www.w3.org/1999/xlink" version="1.1" x="0px" y="0px"
    viewBox="0 0 512 640" style="enable-background:new 0 0 512 512;" xml:space="preserve">
    <g>
        <path fill="#ffffff"
            d="M256,0C144.2,0,53.3,89.9,53.3,200.5c0,177.8,188.8,302.3,196.8,307.6l5.9,3.8l5.9-3.8c8-5.3,196.8-129.8,196.8-307.6   C458.7,89.9,367.8,0,256,0z M347.3,292.3c-24.2,24.7-56.6,38.4-91.3,38.4s-67.1-13.7-91.3-38.4C141,268.2,128,236.4,128,202.7   c0-33.8,13-65.6,36.7-89.6c24.2-24.7,56.6-38.4,91.3-38.4s67.1,13.7,91.3,38.4c23.7,24,36.7,55.8,36.7,89.6   C384,236.4,371,268.2,347.3,292.3z" />
        <polygon fill="#ffffff"
            points="256,102.6 222.9,155.7 162.1,170.8 202.5,218.7 198,281.1 256,257.6 314,281.1 309.5,218.7 349.9,170.8    289.1,155.7  " />
    </g>
</svg>